<?xml version="1.0" encoding="UTF-8"?>
<svg id="Layer_2" data-name="Layer 2" xmlns="http://www.w3.org/2000/svg" viewBox="0 0 431.27 758.45">
  <defs>
    <style>
      .cls-1 {
      fill: #fff;
      }
    </style>
  </defs>
  <g id="Layer_1-2" data-name="Layer 1">
    <g>
      <path class="cls-1"
        d="M398.04,330.57c-5.54.7-9.47,5.76-8.77,11.31.03.21.07.42.11.63-25.37,13.83-53.08,24.16-81.93,27.1-12.68,1.29-24.48,1.21-37.14-.39-10.27-1.3-21.86-4.07-31.89-7.62-18.59-6.56-36.12-16.59-51.51-28.65-7.06-5.54-13.76-11.55-20.09-17.93.11.08.22.16.33.24,12.06,8.36,25.17,15.29,38.92,20.43,17.01,6.36,35,10.04,53.14,10.83,22.7.99,45.4-2.34,67.12-8.87,2.65,2.74,6.73,3.87,10.57,2.54,5.28-1.82,8.09-7.58,6.27-12.86-1.82-5.28-7.58-8.09-12.86-6.27-3.7,1.28-6.18,4.49-6.71,8.12-36.6,11.11-75.85,13.15-112.51.88-13.91-4.66-26.7-10.89-38.7-18.73-1.68-1.1-3.31-2.27-4.96-3.42,4.43,2.23,8.95,4.3,13.54,6.18,16.69,6.83,34.4,11.31,52.42,12.58,21.73,1.53,43.61-1.66,64.01-9.29,25.86-9.68,48.67-26.17,68.11-45.58.22-.22.44-.45.66-.68,2.86,1.2,6.22,1.1,9.09-.62,4.8-2.87,6.36-9.08,3.5-13.88s-9.08-6.36-13.88-3.5c-4.53,2.71-6.13,8.39-3.88,13.05-17.48,18.13-37.64,34.01-60.82,44.15-9.98,4.37-20.39,7.65-31.11,9.63-9.17,1.69-19.3,2.43-28.36,2.11-17.07-.59-33.88-4.29-49.69-10.35-6.87-2.63-13.57-5.68-20.08-9.1-1.09-.57-2.16-1.16-3.23-1.75,1.04.31,2.08.63,3.11.93,24.71,7.16,51.48,8.96,76.49,2.23,15.07-4.06,29.05-11.08,41.48-20.4,3.6,1.66,8,1.11,11.09-1.75,4.11-3.79,4.37-10.19.58-14.3-3.79-4.11-10.19-4.37-14.3-.58-2.7,2.49-3.7,6.1-3.02,9.45-10.4,7.69-21.91,13.87-34.27,17.77-13.02,4.1-26.82,5.92-40.46,5.51-19.62-.59-38.95-5.15-56.95-12.68,10.71.1,21.51-.68,32.02-1.81,34.63-3.73,68.92-13.31,99.55-30.1,17.88-9.8,34.24-21.94,48.73-36.2,4.24,1.71,9.24.4,12.01-3.49,3.24-4.55,2.18-10.87-2.37-14.11-4.55-3.24-10.87-2.18-14.11,2.37-2.16,3.03-2.37,6.84-.95,10.01-26.23,26.82-59.52,45.98-95.41,56.78-23.38,7.03-46.9,10.81-71.11,11.51,2.96-1.01,5.91-2.05,8.82-3.12,22.19-8.1,43.61-18.77,62.86-32.52,10.56-7.54,20.44-16.07,29.27-25.57.2.06.4.12.61.16,5.47,1.15,10.83-2.36,11.98-7.83s-2.36-10.83-7.83-11.98c-5.47-1.15-10.83,2.36-11.98,7.83-.43,2.04-.21,4.07.52,5.87-16.08,17.02-35.59,30.56-56.33,41.34-11.06,5.74-22.52,10.75-34.25,14.98,2.95-2.13,5.88-4.29,8.79-6.46,22.2-16.55,43.65-34.5,62.47-54.86,8.74-9.46,16.96-19.54,23.72-30.54.3.03.6.05.91.05,5.59,0,10.12-4.53,10.12-10.12s-4.53-10.12-10.12-10.12-10.12,4.53-10.12,10.12c0,2.13.66,4.11,1.79,5.74-13.04,20.55-30.98,38.19-49.09,54.11-16.6,14.59-34.18,28.08-52.37,40.64.85-1.36,1.68-2.73,2.55-4.08,10.64-16.46,22.87-31.94,36.66-45.88,7.57-7.65,15.66-14.77,24.23-21.27.8.41,1.67.72,2.6.9,5.48,1.09,10.81-2.48,11.89-7.96s-2.48-10.81-7.96-11.89c-5.48-1.09-10.81,2.48-11.89,7.96-.24,1.23-.24,2.45-.05,3.61-16.19,12.39-30.67,26.99-43.44,42.86-8.35,10.38-16.04,21.33-22.89,32.77.04-.24.06-.48.1-.72.07-.43.14-.86.22-1.29.02-.08.1-.56.18-.96.21-1.13.44-2.26.69-3.38.51-2.34,1.09-4.67,1.73-6.99,7.65-27.63,24.01-52.03,44.28-72.05,15.68-15.49,33.79-28.38,52.89-39.33,1.64,1.11,3.63,1.75,5.76,1.73,5.59-.06,10.07-4.64,10.01-10.23-.06-5.59-4.64-10.07-10.23-10.01-5.59.06-10.07,4.64-10.01,10.23,0,.09.01.18.02.27-32.52,18.63-62.57,43.21-82.32,75.38-8.29,13.5-14.79,28.33-18.45,43.8-1.12-18.06.73-36.65,7.37-53.55,3.46-8.79,8.2-17.05,14.09-24.42,2.37.84,5.06.81,7.54-.31,5.09-2.3,7.36-8.29,5.06-13.38-2.3-5.09-8.29-7.36-13.38-5.06-5.09,2.3-7.36,8.29-5.06,13.38,0,.01.02.03.02.04-13.3,15.35-21.15,34.38-23.88,54.62-1.31,9.74-1.5,19.6-.81,29.41-.16-.54-.32-1.09-.47-1.63-.09-.33-.18-.65-.27-.98,0-.04-.02-.06-.03-.11-.4-1.51-.78-3.03-1.13-4.55-6.9-29.76-3.49-60.74,9.18-88.76,9.39-20.76,23.39-39.13,39.4-55.26,3.03,1.06,6.51.67,9.3-1.37,4.51-3.29,5.51-9.62,2.21-14.14-3.29-4.51-9.62-5.51-14.14-2.21-3.62,2.64-4.93,7.23-3.62,11.28-27.39,27.85-48.17,62.48-52.3,101.94-1.84,17.58-.3,35.59,4.31,52.72-.39-.74-.78-1.48-1.16-2.23-.79-1.55-1.26-2.5-1.74-3.51-12.6-26.3-20.58-55.58-17.22-84.93,1.92-16.85,7.91-32.82,17.03-46.99,3.26.51,6.71-.57,9.09-3.2,3.74-4.15,3.42-10.55-.73-14.29-4.15-3.74-10.55-3.42-14.29.73-3.03,3.36-3.35,8.17-1.18,11.87-7.91,12.73-13.42,26.78-16.01,41.64-2.82,16.18-2.15,32.85.98,48.94,4.29,22.05,12.88,43.27,24.04,62.79-2.25-2.5-4.45-5.05-6.59-7.65-2.38-2.9-4.68-5.85-6.91-8.87-.17-.23-.49-.67-.55-.76-.28-.38-.55-.76-.82-1.14-.63-.88-1.25-1.77-1.87-2.67-1.18-1.72-2.34-3.45-3.47-5.2-9.94-15.44-17.5-31.77-21.33-49.58-4.41-20.5-3.29-41.65,3.49-61.6,9.21-27.13,27.61-50.23,48.46-69.45,1.26-1.16,2.54-2.29,3.82-3.42,4.61,1.93,10.05.21,12.64-4.23,2.81-4.83,1.18-11.02-3.65-13.84-4.83-2.81-11.02-1.18-13.84,3.65-1.39,2.39-1.69,5.11-1.06,7.6-20.66,18.43-38.89,40.01-49.77,65.67-8.88,20.96-11.87,43.99-8.51,66.51,2.93,19.66,10.44,38.45,20.5,55.51,8.11,13.76,17.93,26.57,28.87,38.21,4.28,4.55,8.73,9.26,13.53,13.4-28.07,39.59-51.65,82.28-70.6,126.95-17.07,40.24-30.4,82.03-40.19,124.62-8.12,35.33-13.86,71.23-17.2,107.33-2.35,25.4-3.54,50.93-3.28,76.44.08,7.64.29,15.27.69,22.9.2,3.68.26,7.45.75,11.11.02.14.03.28.04.42.2,2.03,2.1,4.5,4.19,4.8,2.27.33,2.96-1.75,2.78-3.6-.06-.6-.11-1.21-.16-1.81-.06-.71-.11-1.41-.16-2.12-.03-.47-.07-.94-.1-1.42-.01-.22-.03-.43-.04-.65,0-.04,0-.08,0-.11-.38-6.59-.65-13.19-.78-19.8-.5-23.92.35-47.88,2.22-71.73,2.72-34.62,7.65-69.08,14.84-103.06,8.83-41.77,21.02-82.86,36.77-122.55,17.92-45.18,40.51-88.5,67.73-128.78,2.64-3.9,5.33-7.76,8.05-11.6,2.09,2.88,4.27,5.69,6.49,8.44,9.44,11.72,20.09,22.5,31.71,32.07,15.94,13.13,33.7,24.03,52.95,31.59,23.09,9.06,47.98,13.02,72.75,11.75,31.62-1.63,62.32-11.68,90.27-26.24.48-.25.95-.51,1.42-.76,2.12,1.96,5.06,3.01,8.15,2.62,5.54-.7,9.47-5.76,8.77-11.31-.7-5.54-5.76-9.47-11.31-8.77Z" />
      <path class="cls-1"
        d="M164.61,27.68c.75-.83,1.57-1.6,2.38-2.37.05-.05.16-.15.25-.23.17-.16.35-.31.52-.47.47-.42.95-.83,1.44-1.24,1.23-1.03,2.5-2.02,3.79-2.96,5.27-3.83,11.07-6.94,17.3-8.77.94.56,2.03.91,3.21.91,3.47,0,6.28-2.81,6.28-6.28s-2.81-6.28-6.28-6.28c-2.21,0-4.15,1.15-5.27,2.88-7.21,1.86-13.98,5.31-19.99,9.68-3.41,2.48-6.79,5.26-9.63,8.4-2.63,2.91,2.91,10.13,5.98,6.73Z" />
      <path class="cls-1"
        d="M131.31,92.17c-1.29,3.52,7.7,4.76,8.73,1.93,1.75-4.8,4.52-9.35,7.36-13.56,6.81-10.07,15.69-18.61,26.01-25.04,4.86-3.03,10.04-5.51,15.42-7.48,1.68,2.5,4.54,4.14,7.78,4.14,5.18,0,9.38-4.2,9.38-9.38s-4.2-9.38-9.38-9.38-9.3,4.13-9.37,9.26c-22.69,7.41-42.51,22.88-53.57,44.34-.87,1.68-1.72,3.4-2.37,5.17Z" />
      <path class="cls-1"
        d="M212.53,64.92c1.85.87,4.75.73,6.48-.41,3.16-2.09,6.44-3.67,9.4-5.01,6.4-2.9,13.05-5.16,19.86-6.79,1.14,1.59,2.99,2.63,5.09,2.63,3.47,0,6.28-2.81,6.28-6.28s-2.81-6.28-6.28-6.28c-3.01,0-5.53,2.13-6.13,4.96-8.14,1.79-16.13,4.39-23.71,7.83-3.82,1.73-7.7,3.58-11.2,5.9-1.56,1.03-1.5,2.65.22,3.46Z" />
      <path class="cls-1"
        d="M270.06,124.31c1.76.11,4.66-.2,5.53-2.07.17-.36.38-.7.59-1.04.1-.16.2-.31.3-.47.05-.07.1-.14.15-.2.39-.53.8-1.04,1.22-1.54,1.16-1.35,2.45-2.59,3.81-3.73.05-.04.29-.24.43-.35.12-.09.31-.24.36-.28.51-.38,1.02-.75,1.54-1.1,1.07-.73,2.18-1.41,3.31-2.04.33-.18.66-.36,1-.54.15-.08.29-.15.44-.23.04-.02.22-.11.34-.17.06-.03.12-.06.13-.06.21-.1.42-.2.63-.29.01,0,.03-.01.04-.02,1.13,1.08,2.65,1.76,4.34,1.76,3.47,0,6.28-2.81,6.28-6.28s-2.81-6.28-6.28-6.28c-3.24,0-5.88,2.47-6.21,5.62-8.02,3.04-15.76,7.86-20.5,15.06-.31.47-.61.94-.85,1.45-.86,1.84,2.14,2.73,3.39,2.8Z" />
      <path class="cls-1"
        d="M273.39,193.97c-1.73.93-1.35,2.68.22,3.46,1.96.98,4.62.58,6.48-.41,10.9-5.83,20.75-13.63,30.15-21.6,2.81-2.39,5.59-4.82,8.33-7.3.82.3,1.68.48,2.6.48,4.24,0,7.68-3.44,7.68-7.68s-3.44-7.68-7.68-7.68-7.68,3.44-7.68,7.68c0,.74.14,1.44.33,2.12-3.66,3.43-7.39,6.78-11.21,10.03-9.1,7.75-18.66,15.25-29.22,20.9Z" />
      <path class="cls-1"
        d="M227.44,87.99c-21.68,8.82-40.13,25.75-54.63,43.74-1.31,1.63-2.62,3.27-3.83,4.98-2.56,3.61,6.28,4.48,8.07,1.96,3.31-4.66,7.08-9.03,10.93-13.25,8.47-9.3,17.85-17.88,28.35-24.84,4.21-2.79,8.59-5.29,13.16-7.4,1.4,1.52,3.39,2.49,5.62,2.49,4.24,0,7.68-3.44,7.68-7.68s-3.44-7.68-7.68-7.68-7.67,3.44-7.68,7.67Z" />
      <path class="cls-1"
        d="M421.9,271.93c-5.18,0-9.38,4.2-9.38,9.38,0,1.96.6,3.78,1.63,5.28-5.47,8.83-12.44,17.16-20.46,23.45-2.05,1.61-4.24,3.07-6.52,4.34-.98.54-1.77.94-2.76,1.36-.58.25-1.17.49-1.77.71-.22.08-.45.16-.67.24.03-.01-1.26.4-.73.25-1.36.39-3.91,1.32-3.01,3.21.81,1.69,4.29,1.77,5.74,1.35,15.85-4.57,27.81-17.41,36.87-30.91.35.04.69.11,1.05.11,5.18,0,9.38-4.2,9.38-9.38s-4.2-9.38-9.38-9.38Z" />
      <path class="cls-1"
        d="M328.59,257.6c-4.4,1.28-.6,9.52,3.16,8.43,10.49-3.04,18.94-11.04,26.09-18.96,6.65-7.37,12.53-15.46,17.86-23.83.24-.38.48-.76.71-1.14,4.05-.21,7.28-3.53,7.28-7.64s-3.44-7.68-7.68-7.68-7.68,3.44-7.68,7.68c0,1.13.26,2.19.69,3.15-1.61,2.49-3.28,4.94-4.99,7.35-6.17,8.72-12.98,17.34-21.2,24.22-4.2,3.51-8.95,6.88-14.26,8.42Z" />
    </g>
  </g>
</svg>