<svg width="192" height="192" viewBox="0 0 192 192" fill="none" xmlns="http://www.w3.org/2000/svg">
<path d="M137.824 85.6131C136.56 85.7626 135.663 86.8434 135.823 88.0289C135.83 88.0737 135.839 88.1186 135.848 88.1635C130.059 91.1175 123.737 93.324 117.154 93.952C114.261 94.2275 111.568 94.2104 108.679 93.8687C106.336 93.591 103.691 92.9993 101.403 92.241C97.161 90.8398 93.1611 88.6975 89.6495 86.1215C88.0386 84.9381 86.5098 83.6544 85.0654 82.2917C85.0905 82.3087 85.1156 82.3258 85.1407 82.3429C87.8925 84.1286 90.8839 85.6088 94.0213 86.7067C97.9026 88.0652 102.007 88.8512 106.147 89.02C111.326 89.2314 116.506 88.5202 121.462 87.1254C122.066 87.7106 122.997 87.952 123.874 87.6679C125.078 87.2792 125.719 86.0488 125.304 84.921C124.889 83.7932 123.575 83.193 122.37 83.5818C121.526 83.8552 120.96 84.5408 120.839 85.3162C112.488 87.6893 103.532 88.125 95.1668 85.5042C91.9928 84.5088 89.0745 83.1781 86.3364 81.5035C85.953 81.2685 85.5811 81.0186 85.2046 80.773C86.2154 81.2493 87.2468 81.6914 88.2941 82.093C92.1024 83.5519 96.1434 84.5088 100.255 84.7801C105.213 85.1069 110.206 84.4255 114.861 82.7957C120.761 80.7281 125.966 77.2059 130.402 73.06C130.452 73.013 130.502 72.9638 130.552 72.9147C131.205 73.171 131.972 73.1497 132.626 72.7823C133.722 72.1693 134.078 70.8428 133.425 69.8175C132.772 68.7923 131.353 68.4591 130.258 69.07C129.224 69.6488 128.859 70.862 129.373 71.8574C125.384 75.7299 120.784 79.1219 115.495 81.2877C113.218 82.2212 110.842 82.9218 108.396 83.3447C106.304 83.7057 103.993 83.8637 101.925 83.7954C98.0304 83.6694 94.1947 82.879 90.5873 81.5846C89.0197 81.0229 87.4909 80.3714 86.0055 79.6409C85.7568 79.5192 85.5127 79.3931 85.2685 79.2671C85.5058 79.3333 85.7431 79.4017 85.9781 79.4658C91.6164 80.9951 97.7246 81.3796 103.431 79.9421C106.87 79.0749 110.06 77.5754 112.896 75.5847C113.717 75.9393 114.721 75.8218 115.426 75.2109C116.364 74.4014 116.424 73.0343 115.559 72.1564C114.694 71.2786 113.234 71.223 112.296 72.0325C111.68 72.5644 111.452 73.3355 111.607 74.0511C109.234 75.6936 106.607 77.0137 103.787 77.8467C100.816 78.7224 97.6676 79.1112 94.5553 79.0236C90.0785 78.8976 85.6678 77.9236 81.5607 76.3152C84.0044 76.3365 86.4687 76.1699 88.8668 75.9286C96.7686 75.1319 104.593 73.0856 111.582 69.4993C115.662 67.406 119.394 64.8129 122.701 61.767C123.668 62.1323 124.809 61.8525 125.441 61.0216C126.18 60.0497 125.939 58.6998 124.9 58.0077C123.862 57.3157 122.42 57.5421 121.681 58.514C121.188 59.1612 121.14 59.975 121.464 60.6521C115.479 66.3808 107.883 70.4733 99.6938 72.7801C94.359 74.2817 88.9923 75.0891 83.4682 75.2387C84.1436 75.0229 84.8167 74.8008 85.4807 74.5722C90.5439 72.8421 95.4315 70.563 99.8238 67.626C102.233 66.0155 104.488 64.1935 106.503 62.1643C106.548 62.1772 106.594 62.19 106.642 62.1985C107.89 62.4442 109.113 61.6944 109.375 60.526C109.638 59.3577 108.837 58.2128 107.589 57.9671C106.341 57.7215 105.118 58.4712 104.855 59.6396C104.757 60.0754 104.807 60.509 104.974 60.8934C101.305 64.5289 96.853 67.421 92.1206 69.7236C89.597 70.9496 86.9821 72.0197 84.3056 72.9233C84.9787 72.4683 85.6473 72.0069 86.3113 71.5434C91.3768 68.0084 96.2711 64.1743 100.565 59.8254C102.56 57.8048 104.435 55.6517 105.978 53.3022C106.046 53.3086 106.115 53.3128 106.185 53.3128C107.461 53.3128 108.495 52.3452 108.495 51.1512C108.495 49.9572 107.461 48.9896 106.185 48.9896C104.91 48.9896 103.876 49.9572 103.876 51.1512C103.876 51.6062 104.027 52.0291 104.285 52.3773C101.309 56.7667 97.2158 60.5346 93.0835 63.9351C89.2958 67.0515 85.2845 69.9329 81.134 72.6157C81.3279 72.3252 81.5173 72.0326 81.7158 71.7442C84.1436 68.2284 86.9342 64.9219 90.0807 61.9443C91.808 60.3103 93.654 58.7895 95.6094 57.4011C95.792 57.4887 95.9905 57.5549 96.2027 57.5933C97.4531 57.8262 98.6693 57.0636 98.9157 55.8931C99.1621 54.7226 98.3498 53.5841 97.0994 53.3534C95.849 53.1206 94.6328 53.8832 94.3864 55.0537C94.3316 55.3164 94.3316 55.577 94.375 55.8248C90.6808 58.4712 87.3769 61.5898 84.4631 64.9796C82.5578 67.1967 80.8031 69.5356 79.2401 71.9791C79.2492 71.9279 79.2538 71.8766 79.2629 71.8254C79.2789 71.7335 79.2949 71.6417 79.3131 71.5498C79.3177 71.5327 79.3359 71.4302 79.3542 71.3448C79.4021 71.1034 79.4546 70.862 79.5116 70.6228C79.628 70.123 79.7604 69.6253 79.9064 69.1298C81.6519 63.2281 85.3849 58.0163 90.01 53.74C93.5878 50.4314 97.7201 47.6781 102.078 45.3392C102.452 45.5763 102.906 45.713 103.393 45.7088C104.668 45.696 105.69 44.7177 105.677 43.5237C105.663 42.3297 104.618 41.3727 103.342 41.3855C102.067 41.3984 101.045 42.3766 101.058 43.5707C101.058 43.5899 101.061 43.6091 101.063 43.6283C93.6426 47.6076 86.7859 52.8579 82.2794 59.7293C80.3878 62.6129 78.9047 65.7805 78.0696 69.0849C77.814 65.2273 78.2361 61.2565 79.7512 57.6467C80.5407 55.7692 81.6223 54.0049 82.9662 52.4307C83.507 52.6101 84.1208 52.6037 84.6867 52.3645C85.8481 51.8732 86.366 50.5937 85.8412 49.5065C85.3164 48.4193 83.9497 47.9345 82.7882 48.4257C81.6268 48.917 81.1089 50.1965 81.6337 51.2837C81.6337 51.2858 81.6382 51.2901 81.6382 51.2922C78.6035 54.5709 76.8123 58.6357 76.1894 62.9589C75.8905 65.0394 75.8471 67.1454 76.0046 69.2408C75.9681 69.1255 75.9316 69.008 75.8973 68.8927C75.8768 68.8222 75.8563 68.7538 75.8357 68.6833C75.8357 68.6748 75.8312 68.6705 75.8289 68.6598C75.7376 68.3373 75.6509 68.0126 75.5711 67.688C73.9966 61.3313 74.7747 54.714 77.6657 48.729C79.8083 44.2948 83.0027 40.371 86.6558 36.9256C87.3472 37.152 88.1412 37.0687 88.7779 36.633C89.8069 35.9303 90.0351 34.5782 89.2821 33.6127C88.5314 32.6494 87.0871 32.4358 86.0557 33.1407C85.2297 33.7046 84.9308 34.685 85.2297 35.5501C78.98 41.4988 74.2385 48.8956 73.2961 57.3242C72.8763 61.0793 73.2277 64.9262 74.2796 68.5851C74.1906 68.427 74.1016 68.269 74.0149 68.1088C73.8346 67.7777 73.7274 67.5748 73.6179 67.359C70.7429 61.7414 68.922 55.4873 69.6887 49.2182C70.1268 45.6191 71.4936 42.2079 73.5745 39.1812C74.3184 39.2902 75.1056 39.0595 75.6486 38.4977C76.502 37.6113 76.429 36.2443 75.4821 35.4454C74.5351 34.6465 73.0748 34.7149 72.2214 35.6013C71.5301 36.319 71.457 37.3464 71.9522 38.1367C70.1473 40.8558 68.8901 43.8569 68.2991 47.0309C67.6556 50.4869 67.8085 54.0476 68.5227 57.4844C69.5016 62.1942 71.4616 66.7268 74.008 70.8962C73.4947 70.3622 72.9927 69.8175 72.5044 69.2622C71.9613 68.6428 71.4365 68.0126 70.9277 67.3676C70.8889 67.3185 70.8159 67.2245 70.8022 67.2052C70.7383 67.1241 70.6767 67.0429 70.6151 66.9617C70.4713 66.7738 70.3299 66.5837 70.1884 66.3914C69.9191 66.024 69.6545 65.6545 69.3966 65.2807C67.1286 61.9828 65.4035 58.4947 64.5296 54.6906C63.5234 50.3118 63.7789 45.7942 65.326 41.5329C67.4275 35.738 71.6259 30.8039 76.3834 26.6986C76.6709 26.4508 76.9629 26.2094 77.255 25.9681C78.3069 26.3803 79.5481 26.0129 80.1391 25.0645C80.7803 24.0329 80.4084 22.7107 79.3063 22.1084C78.2042 21.5081 76.7918 21.8563 76.1483 22.888C75.8312 23.3985 75.7627 23.9795 75.9065 24.5113C71.1924 28.4479 67.0327 33.0574 64.5502 38.5383C62.524 43.0153 61.8417 47.9345 62.6084 52.7447C63.2769 56.944 64.9905 60.9575 67.286 64.6015C69.1365 67.5406 71.3772 70.2768 73.8734 72.7631C74.85 73.7349 75.8654 74.741 76.9606 75.6253C70.5558 84.0816 65.1754 93.2001 60.8514 102.742C56.9565 111.337 53.9149 120.263 51.6811 129.36C49.8283 136.906 48.5185 144.575 47.7564 152.286C47.2202 157.711 46.9487 163.164 47.008 168.613C47.0263 170.245 47.0742 171.875 47.1655 173.504C47.2111 174.29 47.2248 175.096 47.3366 175.877C47.3412 175.907 47.3434 175.937 47.3457 175.967C47.3914 176.401 47.8249 176.928 48.3018 176.992C48.8197 177.063 48.9772 176.619 48.9361 176.223C48.9224 176.095 48.911 175.965 48.8996 175.837C48.8859 175.685 48.8745 175.536 48.8631 175.384C48.8562 175.284 48.8471 175.183 48.8403 175.081C48.838 175.034 48.8334 174.989 48.8311 174.942C48.8311 174.933 48.8311 174.925 48.8311 174.918C48.7444 173.511 48.6828 172.101 48.6532 170.689C48.5391 165.58 48.733 160.462 49.1597 155.368C49.7804 147.973 50.9053 140.612 52.5458 133.354C54.5606 124.432 57.3421 115.656 60.9359 107.178C65.0248 97.5276 70.1793 88.2745 76.3902 79.6708C76.9926 78.8378 77.6064 78.0133 78.227 77.1931C78.7039 77.8082 79.2013 78.4084 79.7079 78.9958C81.8618 81.4992 84.2919 83.8018 86.9433 85.8459C90.5804 88.6505 94.6328 90.9787 99.0252 92.5935C104.294 94.5287 109.973 95.3745 115.625 95.1032C122.84 94.7551 129.845 92.6084 136.222 89.4984C136.332 89.445 136.439 89.3895 136.546 89.3361C137.03 89.7548 137.701 89.979 138.406 89.8957C139.67 89.7462 140.567 88.6654 140.407 87.4799C140.247 86.2966 139.093 85.4572 137.826 85.6067L137.824 85.6131Z" fill="#FAFAFA"/>
<path d="M84.5611 20.9145C84.7323 20.7372 84.9194 20.5728 85.1042 20.4083C85.1156 20.3976 85.1407 20.3763 85.1612 20.3592C85.2 20.325 85.2411 20.293 85.2799 20.2588C85.3871 20.1691 85.4967 20.0815 85.6085 19.9939C85.8891 19.7739 86.1789 19.5624 86.4732 19.3617C87.6757 18.5436 88.9991 17.8793 90.4207 17.4884C90.6352 17.608 90.8839 17.6828 91.1531 17.6828C91.9449 17.6828 92.5861 17.0826 92.5861 16.3414C92.5861 15.6002 91.9449 15 91.1531 15C90.6489 15 90.2062 15.2456 89.9506 15.6152C88.3055 16.0125 86.7607 16.7494 85.3894 17.6828C84.6113 18.2125 83.8401 18.8063 83.1921 19.477C82.592 20.0986 83.8561 21.6408 84.5566 20.9145H84.5611Z" fill="#FAFAFA"/>
<path d="M76.9628 34.6928C76.6684 35.4447 78.7197 35.7095 78.9548 35.105C79.3541 34.0798 79.9861 33.1079 80.6341 32.2086C82.188 30.0577 84.2142 28.2336 86.569 26.8602C87.6779 26.213 88.8599 25.6832 90.0875 25.2624C90.4708 25.7964 91.1234 26.1467 91.8627 26.1467C93.0446 26.1467 94.0029 25.2496 94.0029 24.1432C94.0029 23.0368 93.0446 22.1396 91.8627 22.1396C90.6807 22.1396 89.7406 23.0218 89.7247 24.1176C84.5473 25.7003 80.0249 29.0047 77.5013 33.5885C77.3028 33.9473 77.1088 34.3147 76.9605 34.6928H76.9628Z" fill="#FAFAFA"/>
<path d="M95.4957 28.8716C95.9178 29.0575 96.5795 29.0276 96.9743 28.7841C97.6953 28.3376 98.4437 28.0002 99.1191 27.7139C100.579 27.0945 102.097 26.6118 103.651 26.2636C103.911 26.6032 104.333 26.8254 104.812 26.8254C105.604 26.8254 106.245 26.2252 106.245 25.484C106.245 24.7428 105.604 24.1426 104.812 24.1426C104.125 24.1426 103.55 24.5975 103.413 25.202C101.556 25.5844 99.7329 26.1397 98.0033 26.8745C97.1317 27.244 96.2464 27.6392 95.4478 28.1347C95.0918 28.3547 95.1055 28.7008 95.498 28.8738L95.4957 28.8716Z" fill="#FAFAFA"/>
<path d="M108.622 41.5574C109.024 41.5809 109.686 41.5147 109.884 41.1153C109.923 41.0384 109.971 40.9657 110.019 40.8931C110.042 40.8589 110.064 40.8269 110.087 40.7927C110.099 40.7778 110.11 40.7628 110.121 40.75C110.21 40.6368 110.304 40.5279 110.4 40.4211C110.664 40.1327 110.959 39.8679 111.269 39.6244C111.281 39.6158 111.335 39.5731 111.367 39.5496C111.395 39.5304 111.438 39.4983 111.449 39.4898C111.566 39.4086 111.682 39.3296 111.801 39.2548C112.045 39.0989 112.298 38.9537 112.556 38.8191C112.631 38.7806 112.707 38.7422 112.784 38.7037C112.818 38.6867 112.85 38.6717 112.885 38.6546C112.894 38.6503 112.935 38.6311 112.962 38.6183C112.976 38.6119 112.99 38.6055 112.992 38.6055C113.04 38.5841 113.088 38.5628 113.136 38.5435C113.138 38.5435 113.142 38.5414 113.145 38.5393C113.403 38.77 113.749 38.9152 114.135 38.9152C114.927 38.9152 115.568 38.315 115.568 37.5738C115.568 36.8326 114.927 36.2324 114.135 36.2324C113.396 36.2324 112.793 36.76 112.718 37.4328C110.888 38.0822 109.122 39.1117 108.04 40.6496C107.97 40.75 107.901 40.8504 107.846 40.9593C107.65 41.3524 108.335 41.5425 108.62 41.5574H108.622Z" fill="#FAFAFA"/>
<path d="M109.382 56.4362C108.987 56.6348 109.074 57.0086 109.432 57.1752C109.879 57.3845 110.486 57.2991 110.911 57.0876C113.398 55.8424 115.645 54.1763 117.79 52.4739C118.431 51.9634 119.066 51.4444 119.691 50.9147C119.878 50.9787 120.074 51.0172 120.284 51.0172C121.252 51.0172 122.037 50.2824 122.037 49.3768C122.037 48.4711 121.252 47.7363 120.284 47.7363C119.317 47.7363 118.532 48.4711 118.532 49.3768C118.532 49.5348 118.564 49.6843 118.607 49.8296C117.772 50.5622 116.921 51.2778 116.049 51.972C113.973 53.6274 111.792 55.2293 109.382 56.4362Z" fill="#FAFAFA"/>
<path d="M98.8979 33.7996C93.951 35.6835 89.7412 39.2998 86.4326 43.1424C86.1337 43.4905 85.8348 43.8408 85.5587 44.2061C84.9746 44.9772 86.9917 45.163 87.4001 44.6247C88.1553 43.6294 89.0156 42.696 89.894 41.7946C91.8267 39.8081 93.967 37.9754 96.3628 36.4888C97.3234 35.8929 98.3229 35.3589 99.3656 34.9082C99.6851 35.2329 100.139 35.44 100.648 35.44C101.615 35.44 102.4 34.7053 102.4 33.7996C102.4 32.894 101.615 32.1592 100.648 32.1592C99.6805 32.1592 98.8979 32.894 98.8956 33.7975L98.8979 33.7996Z" fill="#FAFAFA"/>
<path d="M143.268 73.084C142.086 73.084 141.128 73.9811 141.128 75.0875C141.128 75.5062 141.265 75.8949 141.5 76.2153C140.252 78.1014 138.662 79.8807 136.832 81.2242C136.364 81.5681 135.864 81.8799 135.344 82.1512C135.12 82.2666 134.94 82.352 134.714 82.4417C134.582 82.4951 134.447 82.5464 134.31 82.5934C134.26 82.6104 134.208 82.6275 134.157 82.6446C134.164 82.6425 133.87 82.7301 133.991 82.698C133.68 82.7813 133.099 82.98 133.304 83.3837C133.489 83.7446 134.283 83.7617 134.614 83.672C138.23 82.6959 140.959 79.9533 143.027 77.0697C143.106 77.0783 143.184 77.0932 143.266 77.0932C144.448 77.0932 145.406 76.1961 145.406 75.0897C145.406 73.9832 144.448 73.0861 143.266 73.0861L143.268 73.084Z" fill="#FAFAFA"/>
<path d="M121.977 70.0269C120.974 70.3003 121.841 72.0604 122.699 71.8275C125.092 71.1782 127.02 69.4694 128.652 67.7777C130.169 66.2035 131.511 64.4755 132.727 62.6877C132.782 62.6065 132.836 62.5254 132.889 62.4442C133.813 62.3993 134.55 61.6902 134.55 60.8123C134.55 59.9344 133.765 59.1719 132.798 59.1719C131.83 59.1719 131.045 59.9067 131.045 60.8123C131.045 61.0537 131.105 61.2801 131.203 61.4851C130.835 62.017 130.454 62.5403 130.064 63.0551C128.656 64.9177 127.102 66.7589 125.227 68.2284C124.268 68.9781 123.185 69.698 121.973 70.0269H121.977Z" fill="#FAFAFA"/>
</svg>
