<svg width="900" height="900" viewBox="0 0 900 900" fill="none" xmlns="http://www.w3.org/2000/svg">
  <circle cx="50" cy="50" r="50" fill="lab(36.9089% 35.0961 -85.6872)" />
  <circle cx="50" cy="250" r="50" fill="lab(36.9089% 35.0961 -85.6872)" />
  <circle cx="50" cy="450" r="50" fill="lab(36.9089% 35.0961 -85.6872)" />
  <circle cx="50" cy="650" r="50" fill="lab(36.9089% 35.0961 -85.6872)" />
  <circle cx="50" cy="850" r="50" fill="lab(36.9089% 35.0961 -85.6872)" />
  <circle cx="250" cy="50" r="50" fill="lab(36.9089% 35.0961 -85.6872)" />
  <circle cx="250" cy="250" r="50" fill="lab(36.9089% 35.0961 -85.6872)" />
  <circle cx="250" cy="450" r="50" fill="lab(36.9089% 35.0961 -85.6872)" />
  <circle cx="250" cy="650" r="50" fill="lab(36.9089% 35.0961 -85.6872)" />
  <circle cx="250" cy="850" r="50" fill="lab(36.9089% 35.0961 -85.6872)" />
  <circle cx="450" cy="50" r="50" fill="lab(36.9089% 35.0961 -85.6872)" />
  <circle cx="450" cy="250" r="50" fill="lab(36.9089% 35.0961 -85.6872)" />
  <circle cx="450" cy="450" r="50" fill="lab(36.9089% 35.0961 -85.6872)" />
  <circle cx="450" cy="650" r="50" fill="lab(36.9089% 35.0961 -85.6872)" />
  <circle cx="450" cy="850" r="50" fill="lab(36.9089% 35.0961 -85.6872)" />
  <circle cx="650" cy="50" r="50" fill="lab(36.9089% 35.0961 -85.6872)" />
  <circle cx="650" cy="250" r="50" fill="lab(36.9089% 35.0961 -85.6872)" />
  <circle cx="650" cy="450" r="50" fill="lab(36.9089% 35.0961 -85.6872)" />
  <circle cx="650" cy="650" r="50" fill="lab(36.9089% 35.0961 -85.6872)" />
  <circle cx="650" cy="850" r="50" fill="lab(36.9089% 35.0961 -85.6872)" />
  <circle cx="850" cy="50" r="50" fill="lab(36.9089% 35.0961 -85.6872)" />
  <circle cx="850" cy="250" r="50" fill="lab(36.9089% 35.0961 -85.6872)" />
  <circle cx="850" cy="450" r="50" fill="lab(36.9089% 35.0961 -85.6872)" />
  <circle cx="850" cy="650" r="50" fill="lab(36.9089% 35.0961 -85.6872)" />
  <circle cx="850" cy="850" r="50" fill="lab(36.9089% 35.0961 -85.6872)" />
</svg>